# xmcd
#
# Track frame offsets:
#	182
#	12042
#	23542
#	32595
#	47275
#	65795
#	80897
#	93207
#	112340
#	127867
#	142415
#
# Disc length: 2092 seconds
#
# Revision: 1
# Processed by: cddbd v1.4PL0 Copyright (c) Steve Scherf et al.
# Submitted via: audiograbber 1.82.01
#
DISCID=8e082a0b
DTITLE=Jakub Smolik Country - Az Se Ti Jednou Bude Zdat
DYEAR=1900
DGENRE=
TTITLE0=Trochu Rumu V Lahvi
TTITLE1=Tvym Snum
TTITLE2=16 Ruzi
TTITLE3=Asi Je Cas
TTITLE4=Hvezda K Zemi Pada
TTITLE5=Az Se Ti Jednou Bude Zdat
TTITLE6=Mozna Me Hledas
TTITLE7=Detsky Oci
TTITLE8=Snad Jsem To Ja
TTITLE9=Tobe
TTITLE10=Kozenej Klobouk
EXTD=
EXTT0=
EXTT1=
EXTT2=
EXTT3=
EXTT4=
EXTT5=
EXTT6=
EXTT7=
EXTT8=
EXTT9=
EXTT10=
PLAYORDER=
